Motion_pl10
version=1
nRows=16
nColumns=43
inDegrees=yes
endheader
time	pelvis_tilt	pelvis_list	pelvis_rotation	pelvis_tx	pelvis_ty	pelvis_tz	hip_flexion_r	hip_adduction_r	hip_rotation_r	knee_angle_r	ankle_angle_r	subtalar_angle_r	mtp_angle_r	hip_flexion_l	hip_adduction_l	hip_rotation_l	knee_angle_l	ankle_angle_l	subtalar_angle_l	mtp_angle_l	lumbar_extension	lumbar_bending	lumbar_rotation	neck_flexion	neck_lateral_bending	neck_rotation	arm_flex_r	arm_add_r	arm_rot_r	elbow_flex_r	pro_sup_r	wrist_flex_r	wrist_dev_r	hand_finger_flex_r	arm_flex_l	arm_add_l	arm_rot_l	elbow_flex_l	pro_sup_l	wrist_flex_l	wrist_dev_l	hand_finger_flex_l
      1.24750000	      2.73201697	     -4.25461763	     99.71101954	      0.02726487	      0.53709525	      0.36411576	     78.65405872	    -16.68575042	     -6.92141638	   -121.30156077	     38.95098957	     12.53960379	      0.93360005	     83.20312686	    -12.36174999	      6.12119452	   -119.82578580	     41.35580781	     15.72009962	     -9.27214174	    -57.43021295	      2.95464087	     -2.28257540	     30.96165589	      3.07349414	      2.63584073	    101.50600879	    -35.01185923	     58.55095258	     75.56697859	    108.62101603	    -32.15178435	    -14.03339180	     52.13858187	    126.39531321	    -35.57087862	     88.84041377	     85.91519016	    114.16051642	    -32.09530918	     10.29953509	     90.00021046
      1.25000000	      2.72355006	     -4.30384295	     99.68153041	      0.02752775	      0.54017331	      0.36287042	     78.20955110	    -16.56801481	     -6.97737458	   -120.89565126	     38.90446824	     12.51889672	      1.10974128	     82.78888929	    -12.45179056	      6.06752548	   -119.39513824	     41.35467751	     15.77890408	     -9.17031752	    -57.08649591	      2.83258208	     -2.17469670	     30.74147028	      3.09671986	      2.52236044	    100.44992511	    -35.37823410	     58.21626389	     75.87561328	    108.57663489	    -32.16171985	    -13.81480841	     52.19105128	    125.44229490	    -35.89132659	     88.49270810	     86.16134557	    114.26434471	    -32.02999844	     10.42756906	     90.00021046
      1.25250000	      2.74347544	     -4.47653611	     99.59306417	      0.02761139	      0.54299743	      0.36166466	     77.97437020	    -16.39171996	     -7.05935231	   -120.45760267	     38.80902234	     12.45082083	      1.67577398	     82.46738177	    -12.58424575	      5.97114078	   -118.99606969	     41.33713730	     15.93278662	     -8.85379012	    -56.55652304	      2.64207194	     -1.71506745	     30.29234900	      3.24652106	      2.15894128	     99.24165395	    -36.24475750	     57.66101942	     76.52506115	    109.01372228	    -31.75806432	    -13.32377253	     52.42175971	    124.08883670	    -35.70329337	     87.72325403	     86.09729545	    114.96636106	    -31.53236737	     10.76011312	     90.00021046
      1.25500000	      2.76190005	     -4.51304025	     99.57620778	      0.02772978	      0.54626784	      0.36047275	     77.51705599	    -16.27394252	     -7.16862456	   -120.00283815	     38.75022323	     12.44586704	      1.78804564	     82.00792023	    -12.63723481	      5.91206899	   -118.53718022	     41.29467362	     15.88347459	     -8.79413043	    -56.26804401	      2.59393932	     -1.67027184	     30.24989417	      3.26507750	      2.07397253	     98.22786504	    -36.48435510	     57.33262336	     76.78437757	    108.84797998	    -31.87148941	    -13.14632580	     52.38206412	    123.26513774	    -36.20346506	     87.49891429	     86.45937966	    114.87423626	    -31.56268491	     10.78888000	     90.00021046
      1.25750000	      2.77341909	     -4.54868319	     99.53010703	      0.02786339	      0.54946671	      0.35923086	     77.07372972	    -16.12559096	     -7.26407735	   -119.55560479	     38.72204861	     12.40996741	      1.90907396	     81.54837189	    -12.72511300	      5.82903806	   -118.09855392	     41.28386508	     15.87848470	     -8.72874791	    -55.92981595	      2.51089834	     -1.55665470	     29.99439112	      3.27850330	      2.01489393	     97.13602908	    -36.77894343	     56.96662417	     77.02493891	    108.72416777	    -31.92669234	    -12.93573468	     52.37852435	    122.27910062	    -36.58210983	     87.16798670	     86.69547404	    114.84462284	    -31.57714209	     10.88676298	     90.00021046
      1.26000000	      2.80564382	     -4.63312037	     99.46150142	      0.02792900	      0.55267659	      0.35802720	     76.66639080	    -15.96606088	     -7.35821590	   -119.05611107	     38.68144746	     12.35641773	      2.06526699	     81.13292818	    -12.84674553	      5.72676858	   -117.64264143	     41.27977018	     15.88130239	     -8.64489196	    -55.53843778	      2.41972658	     -1.32745708	     29.74450504	      3.31199509	      1.89146899	     95.96035944	    -37.14865771	     56.45945746	     77.27103426	    108.66087296	    -31.91907030	    -12.66422599	     52.39918287	    121.14218473	    -36.83114477	     86.65589411	     86.82665651	    114.91069387	    -31.55160794	     11.03643239	     90.00021046
      1.26250000	      2.81949053	     -4.74671613	     99.47628360	      0.02796994	      0.55579711	      0.35706584	     76.32317415	    -15.88198426	     -7.46692897	   -118.56712774	     38.59870309	     12.36728178	      2.08466506	     80.78177944	    -12.87489937	      5.61756735	   -117.15675393	     41.20825373	     15.88655007	     -8.63867794	    -55.16699254	      2.38113940	     -1.28407138	     29.55541040	      3.34249070	      1.84826418	     95.25232326	    -37.53319008	     56.57913117	     77.46853621	    108.64827908	    -31.89242098	    -12.63858025	     52.43042019	    120.54061278	    -37.23302265	     86.78605632	     87.10666592	    114.90299321	    -31.52044482	     11.04612551	     90.00021046
      1.26500000	      2.87703825	     -4.75954603	     99.35678135	      0.02820544	      0.55901369	      0.35551442	     75.83998598	    -15.62763180	     -7.57743014	   -118.12787470	     38.58848615	     12.26961228	      2.22926592	     80.29362677	    -13.04360574	      5.57539923	   -116.75509085	     41.23716725	     15.79225631	     -8.56237181	    -54.79644333	      2.26308183	     -1.00674707	     29.29918883	      3.36286831	      1.68614212	     93.66491493	    -37.80956752	     55.61285391	     77.74096824	    108.45274021	    -31.99739274	    -12.24972266	     52.41881716	    118.99784792	    -37.50260884	     85.82197237	     87.16958626	    114.90922801	    -31.59421851	     11.26576526	     90.00021046
      1.26750000	      3.02869549	     -5.08948662	     99.26791221	      0.02831286	      0.56143566	      0.35419931	     75.74794675	    -15.39670630	     -7.74289692	   -117.66998147	     38.45837209	     12.09426667	      2.72648760	     80.25972133	    -13.22587553	      5.54805512	   -116.38149949	     41.18877606	     15.84453751	     -8.32904068	    -54.03676188	      2.06256960	     -0.12354469	     28.81635906	      3.55986220	      1.01975335	     92.04072229	    -39.22787630	     54.61036573	     78.66431520	    109.21449763	    -31.21689012	    -11.65693919	     52.58687594	    117.18921928	    -36.75728766	     84.58835578	     86.72933920	    115.85801962	    -30.94182292	     11.56333365	     90.00021046
      1.27000000	      3.07427816	     -5.10080797	     99.25830866	      0.02835179	      0.56473543	      0.35292576	     75.26145572	    -15.25623849	     -7.84538450	   -117.18771740	     38.35207037	     12.10533060	      2.78918869	     79.80412858	    -13.28156974	      5.47479369	   -115.94401404	     41.12784453	     15.73648927	     -8.30314212	    -53.76730895	      2.03962314	     -0.08182679	     28.72844229	      3.65461447	      0.89669188	     90.96015818	    -39.45666121	     54.25602288	     78.85485524	    109.03858344	    -31.33223083	    -11.46124940	     52.50130841	    116.34325000	    -37.31172784	     84.37318148	     87.11997946	    115.71707601	    -30.99339508	     11.55872657	     90.00021046
      1.27250000	      3.11364370	     -5.12875730	     99.21256533	      0.02843656	      0.56811276	      0.35162180	     74.78654893	    -15.09922606	     -7.97132607	   -116.68518339	     38.30415774	     12.05787654	      2.87389298	     79.33790691	    -13.37415693	      5.36387829	   -115.47952191	     41.09095307	     15.60919351	     -8.26931597	    -53.44287426	      1.99369592	      0.05354612	     28.53675717	      3.64105878	      0.83840878	     89.68767464	    -39.66472847	     53.66739381	     78.98980958	    108.86079031	    -31.44518517	    -11.20495633	     52.40559380	    115.21446229	    -37.70499768	     83.90091409	     87.28575183	    115.58554298	    -31.07729030	     11.63665992	     90.00021046
      1.27500000	      3.23797673	     -5.42780298	     99.14407575	      0.02851137	      0.57075817	      0.35034646	     74.66545075	    -14.89806705	     -8.12546177	   -116.20760847	     38.20596967	     11.90257866	      3.31636048	     79.23476309	    -13.48557576	      5.31717636	   -115.05711353	     41.03770838	     15.52900595	     -8.10109975	    -52.73209108	      1.84992188	      0.77482412	     28.17405461	      3.76586235	      0.30011956	     87.95005226	    -40.75413786	     52.50703639	     79.69342670	    109.47591320	    -30.75191381	    -10.73123019	     52.22882730	    113.44906569	    -37.13100923	     82.75150561	     86.78476866	    116.15647916	    -30.70497917	     11.78036099	     90.00021046
      1.27750000	      3.29431587	     -5.43081809	     99.12983527	      0.02850607	      0.57411049	      0.34903753	     74.18202766	    -14.77557908	     -8.25456893	   -115.71754997	     38.04897310	     11.92786425	      3.36656788	     78.77456086	    -13.54821066	      5.23296470	   -114.61791125	     40.95171052	     15.40539452	     -8.08719020	    -52.46494394	      1.84050962	      0.82422982	     28.10480738	      3.85533811	      0.13683417	     86.78681071	    -40.92274296	     52.06207665	     79.80683347	    109.27221768	    -30.88109682	    -10.52181202	     52.10575860	    112.53559695	    -37.68724623	     82.49097591	     87.14757443	    116.00586811	    -30.79182227	     11.78188514	     90.00021046
      1.28000000	      3.33809920	     -5.46383395	     99.10320618	      0.02853229	      0.57747684	      0.34771652	     73.71696785	    -14.65251520	     -8.39417892	   -115.21085830	     37.97672746	     11.88656215	      3.43865214	     78.32639979	    -13.61408199	      5.11742601	   -114.14541066	     40.89031371	     15.25064747	     -8.06789228	    -52.13148828	      1.82119349	      0.94731758	     27.94353118	      3.81873859	      0.06147089	     85.44374653	    -41.08812792	     51.38888070	     79.88792335	    109.09033179	    -31.00717302	    -10.28440175	     51.96509661	    111.34371254	    -38.07316537	     81.96494784	     87.27232048	    115.87335158	    -30.92392958	     11.85898863	     90.00021046
      1.28250000	      3.39678737	     -5.53588944	     99.08971264	      0.02853186	      0.58067898	      0.34637530	     73.31697494	    -14.53910424	     -8.53199768	   -114.72906773	     37.86227705	     11.85310792	      3.51599336	     77.94721112	    -13.66350163	      5.02645888	   -113.69622328	     40.81682137	     15.09708488	     -8.04949174	    -51.73972653	      1.80143438	      1.11252325	     27.75413961	      3.83576767	     -0.11141801	     84.06260611	    -41.35297032	     50.69927757	     80.01782148	    109.00778749	    -31.05346747	    -10.08080659	     51.83396951	    110.06033622	    -38.37466288	     81.34746569	     87.34576450	    115.83156219	    -31.04774934	     11.94129659	     90.00021046
      1.28500000	      3.46744788	     -5.63656254	     99.08125081	      0.02846027	      0.58383885	      0.34505077	     72.95417418	    -14.44613400	     -8.68399901	   -114.24000103	     37.73973005	     11.82313308	      3.60086449	     77.60670619	    -13.69986178	      4.94127031	   -113.24365287	     40.72764959	     14.94359201	     -8.03286825	    -51.31442242	      1.79848282	      1.32681277	     27.57714985	      3.82915245	     -0.32463856	     82.61210110	    -41.65788234	     49.90715470	     80.17495871	    108.97370780	    -31.06365967	     -9.88032515	     51.68999551	    108.71450071	    -38.60604503	     80.67170157	     87.36370896	    115.86740285	    -31.15690948	     12.02157483	     90.00021046
